<svg width="32" height="32" xmlns="http://www.w3.org/2000/svg" xmlns:xlink="http://www.w3.org/1999/xlink"><defs><path id="a" d="M0 0h6v5H0z"/></defs><g fill="none" fill-rule="evenodd"><g stroke="#3E3832" stroke-linejoin="round" stroke-width="1.1"><path d="M7 8h13.633a2 2 0 012 2v8.328a2 2 0 01-2 2h-9.02 0l-2.205 2.9v-2.9H7a2 2 0 01-2-2V10a2 2 0 012-2z"/><path stroke-linecap="round" d="M8.206 12.007h3.84M8.206 14.412h8.705M8.206 16.816h7.848"/></g><g transform="translate(17 14)"><circle fill="#0067C5" cx="6" cy="6" r="6"/><g transform="translate(3 3.375)"><mask id="b" fill="#fff"><use xlink:href="#a"/></mask><path d="M2.5 1.25V.189a.188.188 0 00-.318-.135L.057 2.116a.188.188 0 000 .269l2.125 2.062a.188.188 0 00.318-.135V3.25h.354c1.16 0 2.228.63 2.789 1.643l.005.01A.187.187 0 006 4.813 3.566 3.566 0 002.5 1.25" fill="#FFF" mask="url(#b)"/></g></g></g></svg>