<svg width="32" height="32" xmlns="http://www.w3.org/2000/svg"><g fill="none" fill-rule="evenodd"><path d="M24.218 21.545l-5.756-2.056v-2.837c1.763-1.445 2.923-3.853 2.923-6.575 0-4.411-3.037-8-6.77-8-3.733 0-6.769 3.589-6.769 8 0 2.877 1.296 5.397 3.23 6.807v2.606L5.32 21.546a4.315 4.315 0 00-2.857 4.056v2.321c0 .34.275.615.615.615h23.385c.34 0 .615-.275.615-.615v-2.321a4.32 4.32 0 00-2.86-4.057zM14.615 3.308c2.713 0 4.971 2.396 5.444 5.547-.009.001-.013 0-.022.002-1.786.346-2.895-.236-3.946-2.076-.11-.196-.277-.308-.546-.31a.613.613 0 00-.535.33c-.566 1.09-2.477 2.045-4.087 2.045a4.33 4.33 0 01-1.693-.32c.576-2.987 2.769-5.218 5.385-5.218zm-5.538 6.769c0-.1.009-.197.012-.295a5.677 5.677 0 001.834.295c1.691 0 3.546-.804 4.597-1.908.98 1.365 2.138 2.013 3.607 2.013.324 0 .67-.042 1.027-.105 0 3.733-2.485 6.77-5.539 6.77-3.053 0-5.538-3.037-5.538-6.77zm16.77 17.23H3.691v-1.705c0-1.297.821-2.462 2.042-2.897l6.165-2.202a.616.616 0 00.409-.58v-2.335a5.82 5.82 0 002.307.489c.927 0 1.81-.223 2.616-.623v2.47c0 .259.163.491.408.579l6.164 2.202a3.084 3.084 0 012.043 2.897v1.706z" fill="#3E3832"/><path d="M26 20c-3.308 0-6 2.692-6 6s2.692 6 6 6 6-2.692 6-6-2.692-6-6-6z" fill="#38A161" fill-rule="nonzero"/><path d="M28.261 24.433l-3.409 3.5a.217.217 0 01-.155.067.217.217 0 01-.16-.073l-1.137-1.25a.268.268 0 010-.354.213.213 0 01.321 0l.981 1.08 3.249-3.336a.213.213 0 01.321.012c.086.101.08.26-.01.354z" stroke="#FFF" stroke-width=".55" fill="#FFF"/></g></svg>