<svg width="32" height="32" xmlns="http://www.w3.org/2000/svg"><g fill="none" fill-rule="evenodd"><g fill="#000"><path d="M18.268 16.023c0 .002.001.003.003.005.253.369.354.818.264 1.341-.063.369-.26.645-.463.834-.16.17-.714.417-.714.417l-.48-.37c.155-.071.51-.304.683-.654.177-.362.075-.608.012-.763-.21-.52-1.067-1.043-1.413-1.273a12.695 12.695 0 01-1.533-1.147c-.705-.685-.74-1.299-.658-1.719.029-.366.518-1.589 2.288-1.43 1.77.159 1.858 1.93 1.858 1.93l-.997.107s-.107-.613-.302-.852c-.222-.272-.742-.566-1.415-.245-.715.341-.527 1.127-.318 1.32 0 0 .268.28.72.615.496.365 1.696 1.108 1.928 1.314.233.206.423.381.537.57"/><path d="M14.62 14.406l.47.394s-.55.327-.679.629c-.129.3-.234.652.164 1.176.558.598 1.7 1.143 2.303 1.645 0 0 .596.403.915.8 0 0 .302.298.404.967.101.669-.306 1.217-.414 1.317-.106.101-.276.376-.79.549a2.88 2.88 0 01-1.803.029 1.96 1.96 0 01-1.049-.791c-.042-.066-.335-.56-.383-1.107l.965-.147s.164 1.167.983 1.28c0 0 1.101.265 1.471-.6.37-.866-.817-1.452-1.643-2.047-.825-.595-1.427-.868-1.776-1.442s-.464-1.302-.111-1.88c.352-.576.66-.637.973-.772"/><path d="M24 27H8V5h10v5.5a.5.5 0 00.5.5H24v16zM19 5.707L23.293 10H19V5.707zm5.961 4.601a.487.487 0 00-.108-.162l-5.999-5.999A.503.503 0 0018.5 4h-11a.5.5 0 00-.5.5v23a.5.5 0 00.5.5h17a.5.5 0 00.5-.5v-17a.502.502 0 00-.039-.192z"/></g><path d="M23 18c-3.308 0-6 2.692-6 6s2.692 6 6 6 6-2.692 6-6-2.692-6-6-6z" fill="#38A161" fill-rule="nonzero"/><path d="M25.261 22.433l-3.409 3.5a.217.217 0 01-.155.067.217.217 0 01-.16-.073l-1.137-1.25a.268.268 0 010-.354.213.213 0 01.321 0l.981 1.08 3.249-3.336a.213.213 0 01.321.012c.086.101.08.26-.01.354z" stroke="#FFF" stroke-width=".55" fill="#FFF"/></g></svg>