<svg width="32" height="32" xmlns="http://www.w3.org/2000/svg"><g fill="none" fill-rule="evenodd"><path d="M22.677 20.318L18 18.647v-2.305c1.433-1.174 2.375-3.13 2.375-5.342 0-3.584-2.467-6.5-5.5-6.5s-5.5 2.916-5.5 6.5c0 2.338 1.053 4.385 2.625 5.531v2.117l-4.678 1.671A3.506 3.506 0 005 23.614V25.5a.5.5 0 00.5.5h19a.5.5 0 00.5-.5v-1.886a3.51 3.51 0 00-2.323-3.296zM14.875 5.5c2.204 0 4.039 1.947 4.423 4.507-.007.001-.011 0-.018.002-1.451.281-2.352-.192-3.206-1.687-.09-.159-.225-.25-.444-.252a.498.498 0 00-.434.269c-.46.885-2.013 1.661-3.321 1.661-.509 0-.946-.084-1.376-.26.468-2.427 2.25-4.24 4.376-4.24zm-4.5 5.5c0-.081.007-.16.01-.24.469.157.954.24 1.49.24 1.374 0 2.881-.653 3.735-1.55.797 1.109 1.737 1.635 2.931 1.635.263 0 .544-.034.834-.085 0 3.033-2.019 5.5-4.5 5.5s-4.5-2.467-4.5-5.5zM24 25H6v-1.386c0-1.054.667-2 1.659-2.354l5.009-1.789A.5.5 0 0013 19v-1.897a4.728 4.728 0 001.875.397c.753 0 1.471-.181 2.125-.506V19a.5.5 0 00.332.471l5.008 1.789A2.506 2.506 0 0124 23.614V25z" fill="#3E3832"/><path d="M22.951 18l-.104.001a5.963 5.963 0 00-4.153 1.783c-1.12 1.131-1.72 2.611-1.693 4.169.056 3.223 2.582 5.748 5.751 5.748l.104-.001c3.28-.056 5.903-2.727 5.847-5.951C28.647 20.525 26.12 18 22.95 18z" fill="#3E3832" fill-rule="nonzero"/><path d="M25.768 23.675h-2.903v-2.902a.138.138 0 00-.276 0v2.902h-2.902a.138.138 0 000 .276h2.902v2.902a.138.138 0 00.276 0v-2.902h2.903a.138.138 0 000-.276z" stroke="#FFF" stroke-width="1.201" fill="#FFF"/></g></svg>